<svg width="20" height="21" viewBox="0 0 20 21" fill="none" xmlns="http://www.w3.org/2000/svg">
<path d="M16.875 4.875H13.75V4.25C13.75 3.75272 13.5525 3.27581 13.2008 2.92417C12.8492 2.57254 12.3723 2.375 11.875 2.375H8.125C7.62772 2.375 7.15081 2.57254 6.79917 2.92417C6.44754 3.27581 6.25 3.75272 6.25 4.25V4.875H3.125C2.79348 4.875 2.47554 5.0067 2.24112 5.24112C2.0067 5.47554 1.875 5.79348 1.875 6.125V16.125C1.875 16.4565 2.0067 16.7745 2.24112 17.0089C2.47554 17.2433 2.79348 17.375 3.125 17.375H16.875C17.2065 17.375 17.5245 17.2433 17.7589 17.0089C17.9933 16.7745 18.125 16.4565 18.125 16.125V6.125C18.125 5.79348 17.9933 5.47554 17.7589 5.24112C17.5245 5.0067 17.2065 4.875 16.875 4.875ZM7.5 4.25C7.5 4.08424 7.56585 3.92527 7.68306 3.80806C7.80027 3.69085 7.95924 3.625 8.125 3.625H11.875C12.0408 3.625 12.1997 3.69085 12.3169 3.80806C12.4342 3.92527 12.5 4.08424 12.5 4.25V4.875H7.5V4.25ZM16.875 6.125V9.37578C14.7655 10.524 12.4018 11.1254 10 11.125C7.59828 11.1254 5.23471 10.5243 3.125 9.37656V6.125H16.875ZM16.875 16.125H3.125V10.7844C5.26557 11.8314 7.61708 12.3755 10 12.375C12.383 12.3751 14.7344 11.8307 16.875 10.7836V16.125ZM8.125 9.25C8.125 9.08424 8.19085 8.92527 8.30806 8.80806C8.42527 8.69085 8.58424 8.625 8.75 8.625H11.25C11.4158 8.625 11.5747 8.69085 11.6919 8.80806C11.8092 8.92527 11.875 9.08424 11.875 9.25C11.875 9.41576 11.8092 9.57473 11.6919 9.69194C11.5747 9.80915 11.4158 9.875 11.25 9.875H8.75C8.58424 9.875 8.42527 9.80915 8.30806 9.69194C8.19085 9.57473 8.125 9.41576 8.125 9.25Z" fill="#131B17"/>
</svg>
