<svg width="20" height="21" viewBox="0 0 20 21" fill="none" xmlns="http://www.w3.org/2000/svg">
<path d="M19.375 16.75H18.125V8C18.2908 8 18.4497 7.93415 18.5669 7.81694C18.6842 7.69973 18.75 7.54076 18.75 7.375C18.75 7.20924 18.6842 7.05027 18.5669 6.93306C18.4497 6.81585 18.2908 6.75 18.125 6.75H14.375V4.25C14.5408 4.25 14.6997 4.18415 14.8169 4.06694C14.9342 3.94973 15 3.79076 15 3.625C15 3.45924 14.9342 3.30027 14.8169 3.18306C14.6997 3.06585 14.5408 3 14.375 3H3.125C2.95924 3 2.80027 3.06585 2.68306 3.18306C2.56585 3.30027 2.5 3.45924 2.5 3.625C2.5 3.79076 2.56585 3.94973 2.68306 4.06694C2.80027 4.18415 2.95924 4.25 3.125 4.25V16.75H1.875C1.70924 16.75 1.55027 16.8158 1.43306 16.9331C1.31585 17.0503 1.25 17.2092 1.25 17.375C1.25 17.5408 1.31585 17.6997 1.43306 17.8169C1.55027 17.9342 1.70924 18 1.875 18H19.375C19.5408 18 19.6997 17.9342 19.8169 17.8169C19.9342 17.6997 20 17.5408 20 17.375C20 17.2092 19.9342 17.0503 19.8169 16.9331C19.6997 16.8158 19.5408 16.75 19.375 16.75ZM16.875 8V16.75H14.375V8H16.875ZM4.375 4.25H13.125V16.75H11.25V13C11.25 12.8342 11.1842 12.6753 11.0669 12.5581C10.9497 12.4408 10.7908 12.375 10.625 12.375H6.875C6.70924 12.375 6.55027 12.4408 6.43306 12.5581C6.31585 12.6753 6.25 12.8342 6.25 13V16.75H4.375V4.25ZM10 16.75H7.5V13.625H10V16.75ZM5.625 6.75C5.625 6.58424 5.69085 6.42527 5.80806 6.30806C5.92527 6.19085 6.08424 6.125 6.25 6.125H7.5C7.66576 6.125 7.82473 6.19085 7.94194 6.30806C8.05915 6.42527 8.125 6.58424 8.125 6.75C8.125 6.91576 8.05915 7.07473 7.94194 7.19194C7.82473 7.30915 7.66576 7.375 7.5 7.375H6.25C6.08424 7.375 5.92527 7.30915 5.80806 7.19194C5.69085 7.07473 5.625 6.91576 5.625 6.75ZM9.375 6.75C9.375 6.58424 9.44085 6.42527 9.55806 6.30806C9.67527 6.19085 9.83424 6.125 10 6.125H11.25C11.4158 6.125 11.5747 6.19085 11.6919 6.30806C11.8092 6.42527 11.875 6.58424 11.875 6.75C11.875 6.91576 11.8092 7.07473 11.6919 7.19194C11.5747 7.30915 11.4158 7.375 11.25 7.375H10C9.83424 7.375 9.67527 7.30915 9.55806 7.19194C9.44085 7.07473 9.375 6.91576 9.375 6.75ZM5.625 9.875C5.625 9.70924 5.69085 9.55027 5.80806 9.43306C5.92527 9.31585 6.08424 9.25 6.25 9.25H7.5C7.66576 9.25 7.82473 9.31585 7.94194 9.43306C8.05915 9.55027 8.125 9.70924 8.125 9.875C8.125 10.0408 8.05915 10.1997 7.94194 10.3169C7.82473 10.4342 7.66576 10.5 7.5 10.5H6.25C6.08424 10.5 5.92527 10.4342 5.80806 10.3169C5.69085 10.1997 5.625 10.0408 5.625 9.875ZM9.375 9.875C9.375 9.70924 9.44085 9.55027 9.55806 9.43306C9.67527 9.31585 9.83424 9.25 10 9.25H11.25C11.4158 9.25 11.5747 9.31585 11.6919 9.43306C11.8092 9.55027 11.875 9.70924 11.875 9.875C11.875 10.0408 11.8092 10.1997 11.6919 10.3169C11.5747 10.4342 11.4158 10.5 11.25 10.5H10C9.83424 10.5 9.67527 10.4342 9.55806 10.3169C9.44085 10.1997 9.375 10.0408 9.375 9.875Z" fill="#131B17"/>
</svg>
