<svg width="20" height="21" viewBox="0 0 20 21" fill="none" xmlns="http://www.w3.org/2000/svg">
<path d="M16.6925 15.6833C16.7506 15.7414 16.7967 15.8103 16.8281 15.8862C16.8595 15.9621 16.8757 16.0434 16.8757 16.1255C16.8757 16.2076 16.8595 16.2889 16.8281 16.3648C16.7967 16.4407 16.7506 16.5096 16.6925 16.5677C16.6345 16.6257 16.5655 16.6718 16.4897 16.7032C16.4138 16.7347 16.3325 16.7508 16.2503 16.7508C16.1682 16.7508 16.0869 16.7347 16.011 16.7032C15.9352 16.6718 15.8662 16.6257 15.8082 16.5677L10.0003 10.7591L4.19253 16.5677C4.07526 16.685 3.9162 16.7508 3.75035 16.7508C3.58449 16.7508 3.42544 16.685 3.30816 16.5677C3.19088 16.4504 3.125 16.2913 3.125 16.1255C3.125 15.9596 3.19088 15.8006 3.30816 15.6833L9.55816 9.4333C9.6162 9.37519 9.68514 9.32909 9.76101 9.29764C9.83688 9.26619 9.91821 9.25 10.0003 9.25C10.0825 9.25 10.1638 9.26619 10.2397 9.29764C10.3156 9.32909 10.3845 9.37519 10.4425 9.4333L16.6925 15.6833ZM4.19253 10.3177L10.0003 4.50909L15.8082 10.3177C15.8662 10.3757 15.9352 10.4218 16.011 10.4532C16.0869 10.4847 16.1682 10.5008 16.2503 10.5008C16.3325 10.5008 16.4138 10.4847 16.4897 10.4532C16.5655 10.4218 16.6345 10.3757 16.6925 10.3177C16.7506 10.2596 16.7967 10.1907 16.8281 10.1148C16.8595 10.0389 16.8757 9.95761 16.8757 9.87549C16.8757 9.79337 16.8595 9.71205 16.8281 9.63618C16.7967 9.56031 16.7506 9.49137 16.6925 9.4333L10.4425 3.1833C10.3845 3.12519 10.3156 3.07909 10.2397 3.04764C10.1638 3.01619 10.0825 3 10.0003 3C9.91821 3 9.83688 3.01619 9.76101 3.04764C9.68514 3.07909 9.6162 3.12519 9.55816 3.1833L3.30816 9.4333C3.19088 9.55058 3.125 9.70964 3.125 9.87549C3.125 10.0413 3.19088 10.2004 3.30816 10.3177C3.42544 10.435 3.58449 10.5008 3.75035 10.5008C3.9162 10.5008 4.07526 10.435 4.19253 10.3177Z" fill="white"/>
</svg>
