<svg width="20" height="21" viewBox="0 0 20 21" fill="none" xmlns="http://www.w3.org/2000/svg">
<path d="M16.875 6.12501H10.2586L8.125 3.99141C8.00935 3.87483 7.87168 3.78241 7.71999 3.71951C7.5683 3.6566 7.40562 3.62448 7.24141 3.62501H3.125C2.79348 3.62501 2.47554 3.7567 2.24112 3.99112C2.0067 4.22554 1.875 4.54349 1.875 4.87501V16.1734C1.87541 16.492 2.00214 16.7974 2.22739 17.0226C2.45263 17.2479 2.75802 17.3746 3.07656 17.375H16.9445C17.2575 17.3746 17.5575 17.2501 17.7788 17.0288C18.0001 16.8075 18.1246 16.5075 18.125 16.1945V7.37501C18.125 7.04349 17.9933 6.72554 17.7589 6.49112C17.5245 6.2567 17.2065 6.12501 16.875 6.12501ZM3.125 4.87501H7.24141L8.49141 6.12501H3.125V4.87501ZM16.875 16.125H3.125V7.37501H16.875V16.125Z" fill="#131B17"/>
</svg>
